<svg width="1280" height="720" xmlns="http://www.w3.org/2000/svg" xmlns:xlink="http://www.w3.org/1999/xlink" overflow="hidden"><g><rect x="0" y="0" width="1280" height="720" fill="#E2E6F0"/><rect x="0" y="0" width="1280" height="51" fill="#343541"/><text fill="#FFFFFF" font-family="Segoe UI Semibold,Segoe UI Semibold_MSFontService,sans-serif" font-weight="600" font-size="24" transform="translate(9.6 34)">SALES PERFORMANCE</text><path d="M906 9.53463C906 7.58251 907.583 6 909.535 6L1074.47 6C1076.42 6 1078 7.58251 1078 9.53463L1078 41.4654C1078 43.4175 1076.42 45 1074.47 45L909.535 45C907.583 45 906 43.4175 906 41.4654Z" fill="#FFFFFF" fill-rule="evenodd"/><path d="M1023 62.4651C1023 58.8945 1025.89 56 1029.47 56L1249.53 56C1253.11 56 1256 58.8945 1256 62.4651L1256 150.535C1256 154.105 1253.11 157 1249.53 157L1029.47 157C1025.89 157 1023 154.105 1023 150.535Z" fill="#FFFFFF" fill-rule="evenodd"/><path d="M524 62.465C524 58.8945 526.894 56 530.465 56L749.535 56C753.106 56 756 58.8945 756 62.465L756 150.535C756 154.106 753.106 157 749.535 157L530.465 157C526.894 157 524 154.106 524 150.535Z" fill="#FFFFFF" fill-rule="evenodd"/><path d="M774 62.465C774 58.8945 776.894 56 780.465 56L999.535 56C1003.11 56 1006 58.8945 1006 62.465L1006 150.535C1006 154.106 1003.11 157 999.535 157L780.465 157C776.894 157 774 154.106 774 150.535Z" fill="#FFFFFF" fill-rule="evenodd"/><path d="M524 301.658C524 297.981 526.981 295 530.658 295L999.342 295C1003.02 295 1006 297.981 1006 301.658L1006 707.342C1006 711.019 1003.02 714 999.342 714L530.658 714C526.981 714 524 711.019 524 707.342Z" fill="#FFFFFF" fill-rule="evenodd"/><path d="M1023 182.401C1023 178.866 1025.87 176 1029.4 176L1249.6 176C1253.13 176 1256 178.866 1256 182.401L1256 269.599C1256 273.134 1253.13 276 1249.6 276L1029.4 276C1025.87 276 1023 273.134 1023 269.599Z" fill="#FFFFFF" fill-rule="evenodd"/><path d="M524 181.465C524 177.894 526.894 175 530.465 175L749.535 175C753.106 175 756 177.894 756 181.465L756 269.535C756 273.106 753.106 276 749.535 276L530.465 276C526.894 276 524 273.106 524 269.535Z" fill="#FFFFFF" fill-rule="evenodd"/><path d="M774 181.465C774 177.894 776.894 175 780.465 175L999.535 175C1003.11 175 1006 177.894 1006 181.465L1006 269.535C1006 273.106 1003.11 276 999.535 276L780.465 276C776.894 276 774 273.106 774 269.535Z" fill="#FFFFFF" fill-rule="evenodd"/><path d="M1084 10.444C1084 8.54191 1085.54 7 1087.44 7L1252.56 7C1254.46 7 1256 8.54191 1256 10.444L1256 41.556C1256 43.4581 1254.46 45 1252.56 45L1087.44 45C1085.54 45 1084 43.4581 1084 41.556Z" fill="#FFFFFF" fill-rule="evenodd"/><path d="M1023 301.032C1023 297.148 1026.15 294 1030.03 294L1248.97 294C1252.85 294 1256 297.148 1256 301.032L1256 705.968C1256 709.852 1252.85 713 1248.97 713L1030.03 713C1026.15 713 1023 709.852 1023 705.968Z" fill="#FFFFFF" fill-rule="evenodd"/><path d="M24 150.254C24 146.248 27.2477 143 31.254 143L498.746 143C502.752 143 506 146.248 506 150.254L506 705.746C506 709.752 502.752 713 498.746 713L31.254 713C27.2477 713 24 709.752 24 705.746Z" fill="#FFFFFF" fill-rule="evenodd"/><path d="M24 59.5064C24 57.5699 25.5699 56 27.5064 56L502.494 56C504.43 56 506 57.5699 506 59.5064L506 123.494C506 125.43 504.43 127 502.494 127L27.5064 127C25.5699 127 24 125.43 24 123.494Z" fill="#FFFFFF" fill-rule="evenodd"/></g></svg>