<svg width="1280" height="720" xmlns="http://www.w3.org/2000/svg" xmlns:xlink="http://www.w3.org/1999/xlink" overflow="hidden"><g><rect x="0" y="0" width="1280" height="720" fill="#E2E6F0"/><rect x="0" y="0" width="1280" height="51" fill="#343541"/><text fill="#FFFFFF" font-family="Segoe UI Semibold,Segoe UI Semibold_MSFontService,sans-serif" font-weight="600" font-size="24" transform="translate(9.6 34)">SALES PERFORMANCE</text><path d="M1023 62.4651C1023 58.8945 1025.89 56 1029.47 56L1249.53 56C1253.11 56 1256 58.8945 1256 62.4651L1256 150.535C1256 154.105 1253.11 157 1249.53 157L1029.47 157C1025.89 157 1023 154.105 1023 150.535Z" fill="#FFFFFF" fill-rule="evenodd"/><path d="M24 62.4651C24 58.8945 26.8945 56 30.4651 56L250.535 56C254.105 56 257 58.8945 257 62.4651L257 150.535C257 154.105 254.105 157 250.535 157L30.4651 157C26.8945 157 24 154.105 24 150.535Z" fill="#FFFFFF" fill-rule="evenodd"/><path d="M274 62.465C274 58.8945 276.894 56 280.465 56L499.535 56C503.106 56 506 58.8945 506 62.465L506 150.535C506 154.106 503.106 157 499.535 157L280.465 157C276.894 157 274 154.106 274 150.535Z" fill="#FFFFFF" fill-rule="evenodd"/><path d="M524 62.465C524 58.8945 526.894 56 530.465 56L749.535 56C753.106 56 756 58.8945 756 62.465L756 150.535C756 154.106 753.106 157 749.535 157L530.465 157C526.894 157 524 154.106 524 150.535Z" fill="#FFFFFF" fill-rule="evenodd"/><path d="M774 62.465C774 58.8945 776.894 56 780.465 56L999.535 56C1003.11 56 1006 58.8945 1006 62.465L1006 150.535C1006 154.106 1003.11 157 999.535 157L780.465 157C776.894 157 774 154.106 774 150.535Z" fill="#FFFFFF" fill-rule="evenodd"/><path d="M1113 9.53451C1113 7.58245 1114.58 6 1116.53 6L1252.47 6C1254.42 6 1256 7.58245 1256 9.53451L1256 41.4655C1256 43.4175 1254.42 45 1252.47 45L1116.53 45C1114.58 45 1113 43.4175 1113 41.4655Z" fill="#FFFFFF" fill-rule="evenodd"/><path d="M903 9.5345C903 7.58245 904.582 6 906.534 6L1091.47 6C1093.42 6 1095 7.58245 1095 9.5345L1095 41.4655C1095 43.4176 1093.42 45 1091.47 45L906.534 45C904.582 45 903 43.4176 903 41.4655Z" fill="#FFFFFF" fill-rule="evenodd"/><path d="M24 182.336C24 178.284 27.2845 175 31.336 175L665.664 175C669.716 175 673 178.284 673 182.336L673 452.664C673 456.716 669.716 460 665.664 460L31.336 460C27.2845 460 24 456.716 24 452.664Z" fill="#FFFFFF" fill-rule="evenodd"/><path d="M690 181.703C690 178.001 693.001 175 696.703 175L1249.3 175C1253 175 1256 178.001 1256 181.703L1256 453.297C1256 456.999 1253 460 1249.3 460L696.703 460C693.001 460 690 456.999 690 453.297Z" fill="#FFFFFF" fill-rule="evenodd"/><path d="M24 484.303C24 481.374 26.374 479 29.3025 479L474.697 479C477.626 479 480 481.374 480 484.303L480 707.697C480 710.626 477.626 713 474.697 713L29.3025 713C26.374 713 24 710.626 24 707.697Z" fill="#FFFFFF" fill-rule="evenodd"/><path d="M497 484.303C497 481.374 499.374 479 502.303 479L856.697 479C859.626 479 862 481.374 862 484.303L862 707.697C862 710.626 859.626 713 856.697 713L502.303 713C499.374 713 497 710.626 497 707.697Z" fill="#FFFFFF" fill-rule="evenodd"/><path d="M879 484.302C879 481.374 881.374 479 884.302 479L1250.7 479C1253.63 479 1256 481.374 1256 484.302L1256 707.698C1256 710.626 1253.63 713 1250.7 713L884.302 713C881.374 713 879 710.626 879 707.698Z" fill="#FFFFFF" fill-rule="evenodd"/></g></svg>