<svg width="1280" height="720" xmlns="http://www.w3.org/2000/svg" xmlns:xlink="http://www.w3.org/1999/xlink" overflow="hidden"><g><rect x="0" y="0" width="1280" height="720" fill="#E2E6F0"/><rect x="0" y="0" width="1280" height="51" fill="#343541"/><text fill="#FFFFFF" font-family="Segoe UI Semibold,Segoe UI Semibold_MSFontService,sans-serif" font-weight="600" font-size="24" transform="translate(9.6 34)">SALES PERFORMANCE</text><path d="M24 180.894C24 177.639 26.639 175 29.8944 175L366.106 175C369.361 175 372 177.639 372 180.894L372 398.106C372 401.361 369.361 404 366.106 404L29.8944 404C26.639 404 24 401.361 24 398.106Z" fill="#FFFFFF" fill-rule="evenodd"/><path d="M390 181.93C390 178.102 393.102 175 396.929 175L809.07 175C812.898 175 816 178.102 816 181.93L816 397.07C816 400.898 812.898 404 809.07 404L396.929 404C393.102 404 390 400.898 390 397.07Z" fill="#FFFFFF" fill-rule="evenodd"/><path d="M1023 62.4651C1023 58.8945 1025.89 56 1029.47 56L1249.53 56C1253.11 56 1256 58.8945 1256 62.4651L1256 150.535C1256 154.105 1253.11 157 1249.53 157L1029.47 157C1025.89 157 1023 154.105 1023 150.535Z" fill="#FFFFFF" fill-rule="evenodd"/><path d="M833 181.215C833 177.783 835.783 175 839.215 175L1249.78 175C1253.22 175 1256 177.783 1256 181.215L1256 397.785C1256 401.217 1253.22 404 1249.78 404L839.215 404C835.783 404 833 401.217 833 397.785Z" fill="#FFFFFF" fill-rule="evenodd"/><path d="M24 427.617C24 423.962 26.9624 421 30.6167 421L1249.38 421C1253.04 421 1256 423.962 1256 427.617L1256 706.383C1256 710.038 1253.04 713 1249.38 713L30.6167 713C26.9624 713 24 710.038 24 706.383Z" fill="#FFFFFF" fill-rule="evenodd"/><path d="M24 62.4651C24 58.8945 26.8945 56 30.4651 56L250.535 56C254.105 56 257 58.8945 257 62.4651L257 150.535C257 154.105 254.105 157 250.535 157L30.4651 157C26.8945 157 24 154.105 24 150.535Z" fill="#FFFFFF" fill-rule="evenodd"/><path d="M274 62.465C274 58.8945 276.894 56 280.465 56L499.535 56C503.106 56 506 58.8945 506 62.465L506 150.535C506 154.106 503.106 157 499.535 157L280.465 157C276.894 157 274 154.106 274 150.535Z" fill="#FFFFFF" fill-rule="evenodd"/><path d="M524 62.465C524 58.8945 526.894 56 530.465 56L749.535 56C753.106 56 756 58.8945 756 62.465L756 150.535C756 154.106 753.106 157 749.535 157L530.465 157C526.894 157 524 154.106 524 150.535Z" fill="#FFFFFF" fill-rule="evenodd"/><path d="M774 62.465C774 58.8945 776.894 56 780.465 56L999.535 56C1003.11 56 1006 58.8945 1006 62.465L1006 150.535C1006 154.106 1003.11 157 999.535 157L780.465 157C776.894 157 774 154.106 774 150.535Z" fill="#FFFFFF" fill-rule="evenodd"/></g></svg>